<svg width="1920" height="1080" viewBox="0 0 1920 1080" fill="none" xmlns="http://www.w3.org/2000/svg">
<rect width="1920" height="1080" fill="#E5E5E5"/>
<g id="Frame 1">
<rect width="1920" height="1080" fill="white"/>
<g id="city 1" clip-path="url(#clip0)">
<g id="Group">
<g id="circe-around" filter="url(#filter0_d)">
<path d="M357 775.588C336.2 778.236 316.3 785.491 299 796.864C289.4 803.139 271.7 820.494 265.3 829.906C255.8 843.829 249 859.516 245.4 875.988C242.8 887.656 242.8 913.344 245.4 925.012C251 950.406 262.1 970.407 280.9 988.84C299.7 1007.27 320.1 1018.16 346 1023.65C357.9 1026.2 384.1 1026.2 396 1023.65C421.9 1018.16 442.3 1007.27 461.1 988.84C479.9 970.407 491 950.406 496.6 925.012C499.2 913.344 499.2 887.656 496.6 875.988C491 850.594 479.9 830.593 461.1 812.16C442.6 794.021 423.2 783.432 398 777.843C389.7 775.98 364.9 774.608 357 775.588ZM394.3 782.452C443.1 791.472 482 829.906 491.6 878.734C493.9 890.107 493.9 910.893 491.6 922.266C481.9 971.486 443.4 1009.23 393.2 1018.74C381.6 1021 360.4 1021 348.8 1018.74C298.6 1009.23 260.1 971.486 250.4 922.266C248.1 910.893 248.1 890.107 250.4 878.734C260.9 825.2 305.6 785.491 361 780.491C368.2 779.902 385.8 780.883 394.3 782.452Z" fill="black"/>
<path d="M357 775.588C336.2 778.236 316.3 785.491 299 796.864C289.4 803.139 271.7 820.494 265.3 829.906C255.8 843.829 249 859.516 245.4 875.988C242.8 887.656 242.8 913.344 245.4 925.012C251 950.406 262.1 970.407 280.9 988.84C299.7 1007.27 320.1 1018.16 346 1023.65C357.9 1026.2 384.1 1026.2 396 1023.65C421.9 1018.16 442.3 1007.27 461.1 988.84C479.9 970.407 491 950.406 496.6 925.012C499.2 913.344 499.2 887.656 496.6 875.988C491 850.594 479.9 830.593 461.1 812.16C442.6 794.021 423.2 783.432 398 777.843C389.7 775.98 364.9 774.608 357 775.588ZM394.3 782.452C443.1 791.472 482 829.906 491.6 878.734C493.9 890.107 493.9 910.893 491.6 922.266C481.9 971.486 443.4 1009.23 393.2 1018.74C381.6 1021 360.4 1021 348.8 1018.74C298.6 1009.23 260.1 971.486 250.4 922.266C248.1 910.893 248.1 890.107 250.4 878.734C260.9 825.2 305.6 785.491 361 780.491C368.2 779.902 385.8 780.883 394.3 782.452Z" stroke="black" stroke-width="6"/>
</g>
<path id="bouildings" d="M387 852.947V874.027H376.5H366V863.732V853.438H360.5C355.1 853.438 355 853.438 355 850.496V847.555H344.6H334.1L333.8 850.202C333.5 852.751 333.1 852.947 328.3 853.241L323 853.536V861.379V869.125H315.5H308V853.438V837.75H297H286V900.5V963.25H288.5H291V938.248V913.246H293.5C295.9 913.246 296 913.54 296 918.639V924.031H304H312V943.641V963.25H315H318V931.875V900.598L324.3 900.304L330.5 900.01L330.8 894.813L331.1 889.715H337.1H343V895.107V900.5H349H355V897.559C355 894.813 354.7 894.617 351.5 894.617H348V889.715V884.812H336.5H325V889.715V894.519L318.8 894.813L312.5 895.107L312.2 906.579L311.9 918.148H306.5H301V913.246V908.344H296H291V875.498V842.652H296.5H302V858.34V874.027H315H328V866.184V858.34H333.5C338.7 858.34 339 858.242 339 855.889C339 853.536 339.3 853.438 344.5 853.438C349.7 853.438 350 853.536 350 855.889C350 858.144 350.3 858.34 355 858.34H360V868.635V878.93H376H392V858.34V837.75H403H414V861.281V884.812H424.5H435V866.184V847.555H443H451V876.479V905.402H444.6H438.1L437.8 900.206L437.5 895.107L425.8 894.813L414 894.519V897.559V900.5H423H432V905.402V910.305H441.5H451V936.777V963.25H453.5H456V902.951V842.652H443H430V860.791V878.93H424.5H419V855.398V831.867H403H387V852.947Z" fill="black" stroke="black" stroke-width="6"/>
<path id="home-center" d="M357 901.186C346.5 910.795 339.1 918.246 339.2 919.129C339.4 919.913 340.5 920.698 341.8 920.894C344 921.188 344 921.286 344 941.091C344 956.779 344.3 961.289 345.4 962.171C346.3 962.956 355.5 963.25 377.1 963.054L407.5 962.76L408 942.17L408.5 921.678L410.9 921.09C414.5 920.305 414.6 918.443 411.1 915.501C408.1 912.854 408 912.56 408 904.324C408 897.853 407.7 895.696 406.6 895.304C404.4 894.421 403.1 896.676 402.8 902.265L402.5 907.363L390 896.088C383.1 889.911 376.9 884.812 376.3 884.812C375.6 884.812 366.9 892.166 357 901.186ZM395.8 908.54L404.2 916.187H376.4H348.5L351 913.834C352.4 912.56 358.6 906.775 364.9 901.088L376.4 890.695L381.9 895.892C385 898.637 391.3 904.422 395.8 908.54ZM403 939.719V958.348H395H387.1L386.8 947.759L386.5 937.268H376.5H366.5L366 947.562L365.5 957.857L357.8 958.152L350 958.446V939.719V921.09H376.5H403V939.719ZM381.5 950.014V957.857L376.3 958.152L371 958.446V950.014V941.582L376.3 941.876L381.5 942.17V950.014Z" fill="black" stroke="black" stroke-width="6"/>
</g>
</g>
</g>
<defs>
<filter id="filter0_d" x="236.45" y="772.263" width="269.1" height="264.296" filterUnits="userSpaceOnUse" color-interpolation-filters="sRGB">
<feFlood flood-opacity="0" result="BackgroundImageFix"/>
<feColorMatrix in="SourceAlpha" type="matrix" values="0 0 0 0 0 0 0 0 0 0 0 0 0 0 0 0 0 0 127 0"/>
<feOffset dy="4"/>
<feGaussianBlur stdDeviation="2"/>
<feColorMatrix type="matrix" values="0 0 0 0 0 0 0 0 0 0 0 0 0 0 0 0 0 0 0.25 0"/>
<feBlend mode="normal" in2="BackgroundImageFix" result="effect1_dropShadow"/>
<feBlend mode="normal" in="SourceGraphic" in2="effect1_dropShadow" result="shape"/>
</filter>
<clipPath id="clip0">
<rect width="256" height="251" fill="white" transform="translate(243 775)"/>
</clipPath>
</defs>
</svg>
