<svg width="100" height="100" viewBox="0 0 100 100" fill="none" xmlns="http://www.w3.org/2000/svg">
<path d="M72.8679 22.2416L72.9645 22.9841L71.8519 23.2144L71.7039 24.7959H73.0365L74.8093 24.6252L75.7244 23.5373L74.7517 23.1589L74.219 22.546L73.419 21.2504L73.0365 19.418L71.5332 19.7244L71.1116 20.3702V21.0982L71.8355 21.5938L72.8679 22.2416Z" fill="black"/>
<path d="M71.5867 22.8504L71.6669 21.8591L70.7846 21.4787L69.5507 21.7645L68.6355 23.2329V24.1851H69.7029L71.5867 22.8504Z" fill="black"/>
<path d="M46.1881 27.0601L45.9167 27.7594H44.6025V28.438H44.9151C44.9151 28.438 44.9336 28.582 44.9604 28.7712L45.7665 28.7033L46.2704 28.3907L46.402 27.7594L47.054 27.7038L47.311 27.1733L46.7126 27.0499L46.1881 27.0601Z" fill="black"/>
<path d="M42.801 28.292L42.7496 28.9563L43.7018 28.8761L43.8005 28.2098L43.2288 27.7594L42.801 28.292Z" fill="black"/>
<path d="M99.9877 49.4828C99.9733 48.0206 99.8992 46.5686 99.7614 45.1393C99.2987 40.3743 98.1594 35.8067 96.4524 31.5249C96.3249 31.2062 96.2077 30.8833 96.072 30.5686C93.7974 25.1949 90.6036 20.3023 86.6941 16.0802C86.437 15.8046 86.1758 15.5332 85.9147 15.2658C85.1764 14.4987 84.4175 13.7501 83.6319 13.0324C74.7434 4.93985 62.9388 0 49.999 0C36.9501 0 25.0612 5.02828 16.1481 13.2442C14.071 15.1589 12.1625 17.2483 10.4308 19.4859C3.89923 27.9342 0 38.5172 0 49.999C0 77.5712 22.4308 100 50.001 100C69.3943 100 86.2314 88.8946 94.5193 72.7136C96.292 69.2545 97.672 65.5671 98.6015 61.7028C98.838 60.7219 99.0416 59.7368 99.2185 58.7393C99.7224 55.8992 99.9979 52.9789 99.9979 49.999C100 49.8262 99.9897 49.6555 99.9877 49.4828ZM90.5769 29.4992L90.8668 29.1743C91.2473 29.9126 91.6031 30.6632 91.9424 31.4242L91.4694 31.4057L90.5769 31.529V29.4992V29.4992ZM83.3522 20.7753L83.3604 18.5419C84.146 19.3748 84.9028 20.2324 85.6267 21.1208L84.726 22.4617L81.5774 22.4329L81.3799 21.7769L83.3522 20.7753ZM23.0375 15.2247V15.1404H24.0391L24.1254 14.7969H25.7645V15.5126L25.2936 16.1419H23.0355L23.0375 15.2247ZM24.6375 17.456C24.6375 17.456 25.6391 17.2853 25.7254 17.2853C25.8118 17.2853 25.7254 18.2848 25.7254 18.2848L23.4674 18.4267L23.0375 17.9126L24.6375 17.456ZM93.7625 37.3039H90.1039L87.8746 35.6442L85.528 35.8725V37.3039H84.7856L83.9836 36.7321L79.9198 35.7018V33.0694L74.7702 33.4704L73.1743 34.328H71.1301L70.1285 34.2272L67.6463 35.6051V38.1985L62.5728 41.8591L62.9943 43.4221H64.0226L63.7532 44.9111L63.0293 45.1763L62.9902 49.0674L67.3748 54.0607H69.2833L69.3985 53.7563H72.8288L73.818 52.8411H75.7635L76.8309 53.9105L79.7306 54.2108L79.346 58.0668L82.5645 63.7491L80.8699 66.9882L80.9851 68.5141L82.3198 69.8447V73.5136L84.072 75.8704V78.9183H85.5856C77.162 89.2607 64.3414 95.8848 49.9969 95.8848C24.6972 95.8869 4.11311 75.3008 4.11311 49.999C4.11311 43.6298 5.42108 37.5589 7.77584 32.0411V30.6098L9.41697 28.617C9.98663 27.5414 10.5974 26.4925 11.2494 25.4704L11.3234 26.3033L9.41902 28.617C8.82879 29.7316 8.27764 30.871 7.77789 32.0411V34.653L9.68432 35.5702V39.2L11.5126 42.3198L12.9995 42.5481L13.1907 41.4787L11.4365 38.7722L11.0931 36.1419H12.1213L12.5553 38.8483L15.091 42.5481L14.437 43.7429L16.0494 46.2087L20.0535 47.2V46.5522L21.6555 46.7805L21.5033 47.9239L22.762 48.1542L24.7054 48.6848L27.4509 51.8129L30.9573 52.0781L31.3008 54.9388L28.9008 56.617L28.7877 59.1712L28.4442 60.7342L31.9157 65.0797L32.181 66.5686C32.181 66.5686 33.4396 66.91 33.5938 66.91C33.746 66.91 36.4154 68.9316 36.4154 68.9316V76.7856L37.3676 77.053L36.7198 80.6766L38.3219 82.8134L38.0257 86.4041L40.1419 90.1244L42.8586 92.4977L45.5897 92.547L45.8571 91.6689L43.8499 89.9784L43.965 89.1393L44.3249 88.1111L44.401 87.0622L43.0437 87.0211L42.3589 86.1614L43.4859 85.0776L43.638 84.2591L42.3794 83.8992L42.4535 83.1383L44.2468 82.8668L46.9738 81.5568L47.8889 79.8787L50.7496 76.218L50.0997 73.3553L50.9779 71.8314L53.6082 71.9116L55.3789 70.509L55.9506 64.9851L57.9147 62.4905L58.2581 60.8884L56.4668 60.3147L55.2843 58.3753L51.2432 58.3342L48.0391 57.1126L47.8869 54.8278L46.8175 52.9584L43.9198 52.9152L42.2458 50.2869L40.7589 49.5609L40.6828 50.363L37.9763 50.5234L36.9851 49.1434L34.1614 48.5697L31.8355 51.2576L28.1748 50.6365L27.9095 46.5111L25.238 46.0545L26.3095 44.0308L26.0031 42.8689L22.4925 45.2154L20.2838 44.946L19.4961 43.2206L19.9774 41.4416L21.1949 39.1979L23.9979 37.7789L29.4108 37.7769L29.3964 39.4283L31.3419 40.3332L31.1877 37.5116L32.5902 36.1008L35.4201 34.2416L35.6134 32.9337L38.435 29.9969L41.4355 28.3352L41.1702 28.1172L43.2021 26.2046L43.9465 26.4021L44.2879 26.8298L45.0591 25.9743L45.2483 25.89L44.4031 25.7707L43.5455 25.4848V24.6622L44 24.29H45.0015L45.4602 24.4915L45.8571 25.2936L46.3424 25.2195V25.1496L46.4823 25.1969L47.8889 24.981L48.0884 24.2941L48.8905 24.4956V25.2401L48.146 25.7522H48.1481L48.2571 26.5686L50.8051 27.3542C50.8051 27.3542 50.8072 27.3645 50.8113 27.3851L51.3974 27.3357L51.4365 26.2314L49.417 25.3121L49.3018 24.7815L50.9779 24.2098L51.0519 22.6057L49.2997 21.5383L49.1846 18.8339L46.7825 20.0144H45.9064L46.1368 17.9558L42.8668 17.1846L41.5136 18.2067V21.3244L39.0807 22.0956L38.1059 24.1275L37.0488 24.2982V21.6987L34.762 21.382L33.6185 20.6375L33.1578 18.9532L37.2483 16.5594L39.2494 15.9506L39.4509 17.2956L40.5656 17.238L40.6519 16.5614L41.818 16.3949L41.8386 16.1584L41.3368 15.9506L41.2216 15.235L42.655 15.1136L43.5208 14.2129L43.5681 14.147L43.5784 14.1512L43.8416 13.8797L46.8545 13.4992L48.1871 14.6303L44.6931 16.4915L49.1393 17.5404L49.7152 16.0535H51.6586L52.3455 14.7578L50.9717 14.4144V12.7753L46.6632 10.8668L43.6895 11.2103L42.0113 12.0884L42.1265 14.2231L40.3722 13.9558L40.1028 12.7753L41.783 11.2494L38.7332 11.0972L37.8571 11.3625L37.4766 12.3907L38.6201 12.5841L38.3918 13.7275L36.4483 13.8427L36.144 14.6036L33.3244 14.6817C33.3244 14.6817 33.2463 13.0817 33.1332 13.0817C33.0201 13.0817 35.344 13.0427 35.344 13.0427L37.0242 11.4015L36.1069 10.9429L34.8874 12.1275L32.8638 12.0123L31.6442 10.3342H29.0509L26.3445 12.3558H28.8247L29.0509 13.0817L28.4072 13.6802L31.1527 13.7563L31.5722 14.7476L28.4812 14.6324L28.3311 13.8694L26.3877 13.4499L25.3573 12.8781L23.0437 12.8967C30.618 7.37892 39.9321 4.11311 49.999 4.11311C61.6021 4.11311 72.2036 8.45039 80.292 15.5763L79.747 16.5512L77.6309 17.3799L76.7383 18.3486L76.944 19.4776L78.036 19.6298L78.6941 21.2751L80.5779 20.5162L80.8884 22.7167H80.3208L78.7743 22.4884L77.0591 22.7763L75.3995 25.1208L73.0262 25.4931L72.6828 27.5249L73.6843 27.7614L73.3943 29.0674L71.0375 28.5943L68.8761 29.0674L68.4175 30.2704L68.7918 32.7959L70.0607 33.3902L72.1892 33.3779L73.6267 33.2483L74.0648 32.1049L76.3105 29.1866L77.7892 29.4889L79.2452 28.1728L79.5167 29.201L83.0992 31.6175L82.6612 32.2057L81.0468 32.1193L81.6679 32.9995L82.6612 33.2175L83.8252 32.7321L83.8005 31.3296L84.3167 31.0704L83.9013 30.6303L81.5116 29.2977L80.8823 27.527H82.8689L83.5044 28.1563L85.2154 29.6308L85.2874 31.4139L87.0602 33.3018L87.7203 30.7147L88.9481 30.0442L89.1784 32.1604L90.3774 33.4766L92.7692 33.4355C93.2319 34.6262 93.6473 35.8375 94.0113 37.0735L93.7625 37.3039ZM27.272 22.7167L28.473 22.145L29.5589 22.4041L29.1846 23.8622L28.0123 24.2344L27.272 22.7167ZM33.6452 26.1491V27.0931H30.9018L29.8735 26.8072L30.1306 26.1491L31.4488 25.6041H33.2504V26.1491H33.6452ZM34.908 27.4653V28.3805L34.2211 28.8226L33.3656 28.981C33.3656 28.981 33.3656 27.6093 33.3656 27.4653H34.908ZM34.1347 27.0931V26.0051L35.0787 26.8648L34.1347 27.0931ZM34.5645 29.2936V30.1841L33.9085 30.8422H32.4504L32.6787 29.8427L33.3676 29.783L33.5095 29.4396L34.5645 29.2936ZM30.9326 27.4653H32.4483L30.5049 30.182L29.7028 29.7522L29.8756 28.6087L30.9326 27.4653ZM37.1393 28.981V29.8694H35.6812L35.2823 29.2936V28.4668H35.3974L37.1393 28.981ZM35.7923 27.7594L36.2077 27.3234L36.909 27.7594L36.3476 28.2221L35.7923 27.7594ZM94.5069 39.6195L94.6509 39.4509C94.7105 39.71 94.7743 39.9692 94.8319 40.2324L94.5069 39.6195Z" fill="black"/>
<path d="M7.77789 30.6098V32.0411C8.27764 30.873 8.82879 29.7337 9.41902 28.617L7.77789 30.6098Z" fill="black"/>
</svg>
