<svg width="120" height="120" viewBox="0 0 120 120" fill="none" xmlns="http://www.w3.org/2000/svg">
<g id="earth-globe-with-parallel-horizontal-lines-pattern 1">
<g id="Group">
<g id="Group_2">
<path id="Vector9" d="M117.163 56.0929C113.392 58.5852 96.657 68.0967 60.8219 68.0967C25.1503 68.0967 7.00143 58.5443 2.83741 56.0239C2.83229 56.4124 2.80673 56.7984 2.80673 57.1869C2.80673 58.8101 2.89109 60.4077 3.02656 61.9951C10.621 65.9342 28.959 73.2091 60.8193 73.2091C92.1581 73.2091 109.594 66.154 116.961 62.1561C117.101 60.5176 117.191 58.8638 117.191 57.192C117.196 56.8214 117.175 56.4559 117.163 56.0929Z" fill="black"/>
<path id="Vector8" d="M5.16359 72.4116L4.95398 72.657L4.95909 72.6621C5.67227 75.208 6.55671 77.6799 7.59963 80.0648C15.7181 84.5432 32.7422 91.3887 60.9599 91.3887C87.3372 91.3887 103.561 85.4123 111.999 80.9646C113.147 78.462 114.121 75.8624 114.908 73.181C111.02 76.0158 94.653 86.2763 60.9625 86.2763C22.0242 86.2763 5.32463 72.5522 5.16359 72.4116Z" fill="black"/>
<path id="Vector7" d="M115.368 42.8416C114.916 41.1034 114.382 39.3959 113.781 37.7242C109.957 40.6305 95.8314 49.1426 61.7804 49.1426C27.7372 49.1426 10.9891 40.4618 6.29338 37.5248C5.69012 39.1684 5.16611 40.8504 4.71622 42.563C11.2754 46.4024 28.7264 54.255 61.7779 54.255C93.7174 54.255 109.264 46.8753 115.368 42.8416Z" fill="black"/>
<path id="Vector6" d="M13.576 90.5298C16.7022 94.8676 20.4163 98.753 24.6033 102.063C32.9007 105.149 44.902 107.95 61.3076 107.95C75.9417 107.95 86.7109 105.621 94.4331 102.822C99.1416 99.2617 103.275 94.9878 106.69 90.1617C104.962 91.8232 92.3166 102.838 61.3076 102.838C30.1809 102.835 15.6439 92.1811 13.576 90.5298Z" fill="black"/>
<path id="Vector5" d="M110.591 93.4975C110.634 93.454 110.696 93.3876 110.711 93.3722L110.69 93.3492C110.652 93.4004 110.627 93.4515 110.591 93.4975Z" fill="black"/>
<path id="Vector4" d="M61.5887 5.90223C69.2624 5.6236 74.4642 3.71669 76.9565 2.56641C73.4852 1.4877 69.8656 0.733624 66.1464 0.33486C64.127 0.120141 62.0795 0 60.0039 0C57.987 0 56.0009 0.109916 54.0326 0.314411C50.2086 0.713175 46.4944 1.4877 42.9286 2.60475C45.3186 3.57866 51.9391 5.92523 60.0703 5.92523C60.5713 5.92779 61.08 5.92268 61.5887 5.90223Z" fill="black"/>
<path id="Vector3" d="M61.76 114.865C59.1169 114.949 56.6271 114.734 54.3828 114.384C50.5588 114.783 46.8446 115.562 43.2737 116.68C45.6714 117.648 52.2893 120 60.4231 120C60.9215 120 61.4328 119.99 61.9415 119.969C69.6177 119.696 74.8169 117.786 77.3118 116.639C73.8379 115.552 70.2184 114.803 66.494 114.407C65.0498 114.624 63.5007 114.803 61.76 114.865Z" fill="black"/>
<path id="Vector2" d="M95.1284 12.1086C93.6893 10.989 92.1991 9.93589 90.6653 8.95432C86.2278 11.7993 77.1022 15.8253 60.9599 15.8253C44.8637 15.8253 34.3859 12.0268 28.8722 9.25594C27.2797 10.2938 25.7357 11.4083 24.2583 12.5969C29.6007 15.7231 41.4333 20.9403 60.9574 20.9403C80.2872 20.9351 90.5708 15.5084 95.1284 12.1086Z" fill="black"/>
<path id="Vector1" d="M107.891 25.981C106.956 24.5521 105.954 23.1692 104.901 21.8324C100.346 25.2576 87.4215 32.6961 60.9497 32.6961C36.2621 32.6961 21.8886 25.1733 15.7768 20.9735C14.6879 22.2976 13.6603 23.6754 12.6915 25.0966C19.3964 29.7949 34.644 37.8085 60.9497 37.8085C88.3954 37.8085 102.416 30.0607 107.891 25.981Z" fill="black"/>
</g>
</g>
</g>
</svg>
