<svg width="180" height="180" viewBox="0 0 180 180" fill="none" xmlns="http://www.w3.org/2000/svg">
<g id="earth-globe-with-parallel-horizontal-lines-pattern 1">
<g id="Group">
<g id="Group_2">
<path id="Vector9" d="M175.744 84.1393C170.088 87.8777 144.985 102.145 91.2328 102.145C37.7255 102.145 10.5021 87.8164 4.25609 84.0358C4.24843 84.6186 4.21008 85.1976 4.21008 85.7804C4.21008 88.2152 4.33661 90.6116 4.53983 92.9927C15.9315 98.9013 43.4385 109.814 91.2289 109.814C138.237 109.814 164.391 99.231 175.441 93.2342C175.652 90.7765 175.786 88.2957 175.786 85.7881C175.794 85.2321 175.763 84.6838 175.744 84.1393Z" fill="black"/>
<path id="Vector8" d="M7.74535 108.617L7.43094 108.985L7.43861 108.993C8.50837 112.812 9.83503 116.52 11.3994 120.097C23.5771 126.815 49.1133 137.083 91.4399 137.083C131.006 137.083 155.342 128.118 167.999 121.447C169.72 117.693 171.181 113.794 172.362 109.771C166.53 114.024 141.979 129.414 91.4437 129.414C33.0362 129.414 7.98691 108.828 7.74535 108.617Z" fill="black"/>
<path id="Vector7" d="M173.052 64.2625C172.374 61.6552 171.572 59.0939 170.671 56.5862C164.935 60.9458 143.747 73.7139 92.6707 73.7139C41.6058 73.7139 16.4836 60.6928 9.44006 56.2872C8.53517 58.7526 7.74914 61.2756 7.07431 63.8445C16.9131 69.6036 43.0896 81.3825 92.6668 81.3825C140.576 81.3825 163.896 70.3129 173.052 64.2625Z" fill="black"/>
<path id="Vector6" d="M20.3639 135.795C25.0532 142.301 30.6244 148.13 36.905 153.095C49.351 157.723 67.353 161.925 91.9613 161.925C113.913 161.925 130.066 158.432 141.65 154.234C148.712 148.893 154.912 142.482 160.035 135.243C157.443 137.735 138.475 154.257 91.9613 154.257C45.2714 154.253 23.4658 138.272 20.3639 135.795Z" fill="black"/>
<path id="Vector5" d="M165.886 140.246C165.951 140.181 166.043 140.081 166.066 140.058L166.036 140.024C165.978 140.101 165.94 140.177 165.886 140.246Z" fill="black"/>
<path id="Vector4" d="M92.383 8.85334C103.894 8.4354 111.696 5.57503 115.435 3.84961C110.228 2.23155 104.798 1.10044 99.2195 0.50229C96.1905 0.180211 93.1192 0 90.0058 0C86.9805 0 84.0013 0.164874 81.0489 0.471616C75.3128 1.06976 69.7416 2.23155 64.3928 3.90713C67.9779 5.36798 77.9086 8.88785 90.1055 8.88785C90.857 8.89168 91.62 8.88401 92.383 8.85334Z" fill="black"/>
<path id="Vector3" d="M92.6399 172.297C88.6753 172.423 84.9407 172.101 81.5742 171.576C75.8381 172.174 70.2669 173.344 64.9105 175.019C68.507 176.472 78.4339 180 90.6346 180C91.3823 180 92.1491 179.985 92.9122 179.954C104.426 179.544 112.225 176.68 115.968 174.958C110.757 173.328 105.328 172.205 99.741 171.611C97.5746 171.937 95.2511 172.205 92.6399 172.297Z" fill="black"/>
<path id="Vector2" d="M142.693 18.163C140.534 16.4835 138.299 14.9038 135.998 13.4315C129.342 17.699 115.653 23.738 91.4399 23.738C67.2955 23.738 51.5788 18.0403 43.3083 13.8839C40.9195 15.4406 38.6036 17.1124 36.3874 18.8953C44.401 23.5846 62.1499 31.4104 91.4361 31.4104C120.431 31.4027 135.856 23.2625 142.693 18.163Z" fill="black"/>
<path id="Vector1" d="M161.837 38.9716C160.434 36.8282 158.931 34.7539 157.351 32.7486C150.518 37.8865 131.132 49.0442 91.4245 49.0442C54.3931 49.0442 32.833 37.7599 23.6652 31.4602C22.0318 33.4464 20.4904 35.5131 19.0372 37.6449C29.0945 44.6923 51.966 56.7128 91.4245 56.7128C132.593 56.7128 153.624 45.0911 161.837 38.9716Z" fill="black"/>
</g>
</g>
</g>
</svg>
